<svg width="224.42872314453123px" height="58.4px" xmlns="http://www.w3.org/2000/svg" viewBox="137.7856384277344 45.8 224.42872314453123 58.4" preserveAspectRatio="xMidYMid"><defs><filter id="editing-hole" x="-100%" y="-100%" width="300%" height="300%"><feFlood flood-color="#000" result="black"></feFlood><feMorphology operator="dilate" radius="2" in="SourceGraphic" result="erode"></feMorphology><feGaussianBlur in="erode" stdDeviation="4" result="blur"></feGaussianBlur><feOffset in="blur" dx="2" dy="2" result="offset"></feOffset><feComposite operator="atop" in="offset" in2="black" result="merge"></feComposite><feComposite operator="in" in="merge" in2="SourceGraphic" result="inner-shadow"></feComposite></filter></defs><g filter="url(#editing-hole)"><g transform="translate(174.7723410129547, 86.169997215271)"><path d="M1.01-14.88L1.01-14.88L1.01-14.88Q1.70-16.32 3.64-16.32L3.64-16.32L3.64-16.32Q5.57-16.32 6.47-15.20L6.47-15.20L6.47-15.20Q7.37-14.09 7.37-11.52L7.37-11.52L7.37-2.95L13.20-15.82L16.06-15.82L8.59 0L2.98 0L2.26-11.52L2.26-11.52Q2.18-12.79 1.84-13.66L1.84-13.66L1.84-13.66Q1.49-14.52 1.01-14.88ZM15.76-0.72L15.76-0.72L15.76-0.72Q15.19-1.34 14.94-2.33L14.94-2.33L14.94-2.33Q14.69-3.31 14.69-4.92L14.69-4.92L14.69-4.92Q14.69-6.53 15.24-7.99L15.24-7.99L15.24-7.99Q15.79-9.46 16.80-10.51L16.80-10.51L16.80-10.51Q18.86-12.72 22.27-12.72L22.27-12.72L22.27-12.72Q23.50-12.72 24.38-12.31L24.38-12.31L28.49-12.72L26.71-3.36L26.71-3.36Q26.64-3.07 26.64-2.54L26.64-2.54L26.64-2.54Q26.64-2.02 26.96-1.68L26.96-1.68L26.96-1.68Q27.29-1.34 27.77-1.30L27.77-1.30L27.77-1.30Q27.53-0.48 26.65 0L26.65 0L26.65 0Q25.78 0.48 24.79 0.48L24.79 0.48L24.79 0.48Q23.81 0.48 23.15 0.11L23.15 0.11L23.15 0.11Q22.49-0.26 22.30-0.89L22.30-0.89L22.30-0.89Q21.91-0.29 21.10 0.10L21.10 0.10L21.10 0.10Q20.28 0.48 19.19 0.48L19.19 0.48L19.19 0.48Q18.10 0.48 17.21 0.19L17.21 0.19L17.21 0.19Q16.32-0.10 15.76-0.72ZM20.82-10.46L20.82-10.46L20.82-10.46Q20.54-10.03 20.30-9.30L20.30-9.30L20.30-9.30Q20.06-8.57 19.67-6.61L19.67-6.61L19.67-6.61Q19.27-4.66 19.27-3.26L19.27-3.26L19.27-3.26Q19.27-1.87 19.49-1.46L19.49-1.46L19.49-1.46Q19.70-1.06 20.09-1.06L20.09-1.06L20.09-1.06Q20.86-1.06 21.42-1.79L21.42-1.79L21.42-1.79Q21.98-2.52 22.20-3.82L22.20-3.82L23.47-10.85L23.47-10.85Q22.97-11.28 22.38-11.28L22.38-11.28L22.38-11.28Q21.79-11.28 21.44-11.09L21.44-11.09L21.44-11.09Q21.10-10.90 20.82-10.46ZM36.96-8.42L36.96-8.42L36.96-8.42Q37.30-9.31 37.30-10.08L37.30-10.08L37.30-10.08Q37.30-11.50 36.14-11.50L36.14-11.50L36.14-11.50Q35.54-11.50 35.05-10.96L35.05-10.96L35.05-10.96Q34.56-10.42 34.56-9.74L34.56-9.74L34.56-9.74Q34.56-9.26 34.94-8.88L34.94-8.88L34.94-8.88Q35.50-8.35 36.91-7.49L36.91-7.49L36.91-7.49Q38.33-6.62 38.87-5.92L38.87-5.92L38.87-5.92Q39.41-5.21 39.41-4.24L39.41-4.24L39.41-4.24Q39.41-3.26 38.94-2.38L38.94-2.38L38.94-2.38Q38.47-1.49 37.63-0.86L37.63-0.86L37.63-0.86Q35.83 0.48 32.95 0.48L32.95 0.48L32.95 0.48Q31.39 0.48 30.19-0.34L30.19-0.34L30.19-0.34Q28.99-1.13 28.99-2.06L28.99-2.06L28.99-2.06Q28.99-3 29.68-3.55L29.68-3.55L29.68-3.55Q30.36-4.10 31.37-4.10L31.37-4.10L31.37-4.10Q32.38-4.10 33-3.72L33-3.72L33-3.72Q32.69-2.93 32.69-2.40L32.69-2.40L32.69-2.40Q32.69-0.82 34.03-0.82L34.03-0.82L34.03-0.82Q34.61-0.82 34.99-1.18L34.99-1.18L34.99-1.18Q35.38-1.54 35.38-2.16L35.38-2.16L35.38-2.16Q35.38-3.38 33.31-4.68L33.31-4.68L33.31-4.68Q31.63-5.78 31.25-6.22L31.25-6.22L31.25-6.22Q30.60-6.98 30.60-7.94L30.60-7.94L30.60-7.94Q30.60-8.90 31.06-9.82L31.06-9.82L31.06-9.82Q31.51-10.73 32.35-11.38L32.35-11.38L32.35-11.38Q34.10-12.72 37.15-12.72L37.15-12.72L37.15-12.72Q38.71-12.72 39.64-12.10L39.64-12.10L39.64-12.10Q40.56-11.47 40.56-10.42L40.56-10.42L40.56-10.42Q40.56-9.36 39.92-8.76L39.92-8.76L39.92-8.76Q39.29-8.16 38.14-8.16L38.14-8.16L38.14-8.16Q37.34-8.16 36.96-8.42ZM49.08-2.71L49.08-2.71L49.08-2.71Q47.83-1.42 45.55-1.42L45.55-1.42L45.55-1.42Q42.70-1.42 42.10-3.50L42.10-3.50L42.10-3.50Q41.90-4.13 41.90-4.82L41.90-4.82L41.90-4.82Q41.90-5.52 42.05-6.24L42.05-6.24L43.18-12.24L48.05-12.72L46.73-5.74L46.73-5.74Q46.68-5.42 46.61-5.09L46.61-5.09L46.61-5.09Q46.54-4.75 46.54-4.40L46.54-4.40L46.54-4.40Q46.54-4.06 46.66-3.83L46.66-3.83L46.66-3.83Q46.78-3.60 46.94-3.46L46.94-3.46L46.94-3.46Q47.23-3.26 47.75-3.26L47.75-3.26L47.75-3.26Q48.26-3.26 48.71-3.89L48.71-3.89L48.71-3.89Q49.15-4.51 49.37-5.59L49.37-5.59L50.69-12.24L55.42-12.72L53.62-3.29L53.62-3.29Q52.73 1.32 50.90 3.14L50.90 3.14L50.90 3.14Q49.97 4.08 48.76 4.45L48.76 4.45L48.76 4.45Q47.54 4.82 45.98 4.82L45.98 4.82L45.98 4.82Q43.46 4.82 42.02 4.03L42.02 4.03L42.02 4.03Q40.58 3.24 40.58 1.92L40.58 1.92L40.58 1.92Q40.58 0.94 41.33 0.37L41.33 0.37L41.33 0.37Q42.07-0.19 43.22-0.19L43.22-0.19L43.22-0.19Q44.23-0.19 45 0.24L45 0.24L45 0.24Q45.46 0.50 45.67 0.84L45.67 0.84L45.67 0.84Q45.12 1.32 45.12 2.11L45.12 2.11L45.12 2.11Q45.12 3.17 46.08 3.17L46.08 3.17L46.08 3.17Q47.66 3.17 48.58-0.48L48.58-0.48L48.58-0.48Q48.84-1.56 49.08-2.71ZM62.02-1.32L62.02-1.32L62.02-1.32Q61.27 0.48 58.90 0.48L58.90 0.48L58.90 0.48Q57.70 0.48 56.93-0.36L56.93-0.36L56.93-0.36Q56.30-1.06 56.30-1.85L56.30-1.85L56.30-1.85Q56.30-3.65 57.14-7.58L57.14-7.58L58.90-16.80L63.77-17.28L61.44-5.14L61.44-5.14Q61.03-3.36 61.03-2.74L61.03-2.74L61.03-2.74Q61.03-1.37 62.02-1.32ZM73.90 0L68.78 0L71.52-14.59L71.78-15.84L76.92-15.84L73.90 0ZM83.64-1.42L83.64-1.42L83.64-1.42Q82.99 0.48 80.50 0.48L80.50 0.48L80.50 0.48Q78.65 0.48 77.38-1.73L77.38-1.73L77.38-1.73Q76.08-3.94 75.84-7.54L75.84-7.54L75.84-7.54Q78.48-12.36 80.30-14.35L80.30-14.35L80.30-14.35Q82.06-16.25 83.88-16.25L83.88-16.25L83.88-16.25Q84.86-16.25 85.57-15.72L85.57-15.72L85.57-15.72Q86.28-15.19 86.45-14.35L86.45-14.35L86.45-14.35Q85.63-14.02 85.25-13.75L85.25-13.75L85.25-13.75Q84.29-13.03 82.99-11.42L82.99-11.42L80.81-8.81L80.81-8.81Q80.28-8.18 80.06-7.90L80.06-7.90L80.06-7.90Q80.42-5.88 81.50-3.89L81.50-3.89L81.50-3.89Q82.54-1.99 83.64-1.42ZM93.38-1.01L93.38-1.01L93.38-1.01Q92.23 0.48 89.38 0.48L89.38 0.48L89.38 0.48Q87.89 0.48 86.81-0.42L86.81-0.42L86.81-0.42Q85.73-1.32 85.73-2.62L85.73-2.62L85.73-2.62Q85.73-3.34 85.80-3.70L85.80-3.70L87.41-12.24L92.28-12.72L90.53-3.46L90.53-3.46Q90.43-2.93 90.43-2.62L90.43-2.62L90.43-2.62Q90.43-1.22 91.27-1.22L91.27-1.22L91.27-1.22Q92.21-1.22 92.88-2.50L92.88-2.50L92.88-2.50Q93.10-2.90 93.19-3.43L93.19-3.43L94.90-12.24L99.62-12.72L97.85-3.36L97.85-3.36Q97.78-3 97.78-2.62L97.78-2.62L97.78-2.62Q97.78-2.23 97.99-1.81L97.99-1.81L97.99-1.81Q98.21-1.39 98.90-1.30L98.90-1.30L98.90-1.30Q98.76-0.72 98.26-0.34L98.26-0.34L98.26-0.34Q97.20 0.48 96.06 0.48L96.06 0.48L96.06 0.48Q94.92 0.48 94.25 0.07L94.25 0.07L94.25 0.07Q93.58-0.34 93.38-1.01ZM108.10-8.42L108.10-8.42L108.10-8.42Q108.43-9.31 108.43-10.08L108.43-10.08L108.43-10.08Q108.43-11.50 107.28-11.50L107.28-11.50L107.28-11.50Q106.68-11.50 106.19-10.96L106.19-10.96L106.19-10.96Q105.70-10.42 105.70-9.74L105.70-9.74L105.70-9.74Q105.70-9.26 106.08-8.88L106.08-8.88L106.08-8.88Q106.63-8.35 108.05-7.49L108.05-7.49L108.05-7.49Q109.46-6.62 110.00-5.92L110.00-5.92L110.00-5.92Q110.54-5.21 110.54-4.24L110.54-4.24L110.54-4.24Q110.54-3.26 110.08-2.38L110.08-2.38L110.08-2.38Q109.61-1.49 108.77-0.86L108.77-0.86L108.77-0.86Q106.97 0.48 104.09 0.48L104.09 0.48L104.09 0.48Q102.53 0.48 101.33-0.34L101.33-0.34L101.33-0.34Q100.13-1.13 100.13-2.06L100.13-2.06L100.13-2.06Q100.13-3 100.81-3.55L100.81-3.55L100.81-3.55Q101.50-4.10 102.50-4.10L102.50-4.10L102.50-4.10Q103.51-4.10 104.14-3.72L104.14-3.72L104.14-3.72Q103.82-2.93 103.82-2.40L103.82-2.40L103.82-2.40Q103.82-0.82 105.17-0.82L105.17-0.82L105.17-0.82Q105.74-0.82 106.13-1.18L106.13-1.18L106.13-1.18Q106.51-1.54 106.51-2.16L106.51-2.16L106.51-2.16Q106.51-3.38 104.45-4.68L104.45-4.68L104.45-4.68Q102.77-5.78 102.38-6.22L102.38-6.22L102.38-6.22Q101.74-6.98 101.74-7.94L101.74-7.94L101.74-7.94Q101.74-8.90 102.19-9.82L102.19-9.82L102.19-9.82Q102.65-10.73 103.49-11.38L103.49-11.38L103.49-11.38Q105.24-12.72 108.29-12.72L108.29-12.72L108.29-12.72Q109.85-12.72 110.77-12.10L110.77-12.10L110.77-12.10Q111.70-11.47 111.70-10.42L111.70-10.42L111.70-10.42Q111.70-9.36 111.06-8.76L111.06-8.76L111.06-8.76Q110.42-8.16 109.27-8.16L109.27-8.16L109.27-8.16Q108.48-8.16 108.10-8.42ZM129.86 0.48L129.86 0.48L129.86 0.48Q126.96 0.48 126.96-1.78L126.96-1.78L126.96-1.78Q126.96-2.76 127.38-4.67L127.38-4.67L127.38-4.67Q127.80-6.58 127.94-7.34L127.94-7.34L127.94-7.34Q128.28-9.10 128.28-9.65L128.28-9.65L128.28-9.65Q128.28-10.87 127.37-10.87L127.37-10.87L127.37-10.87Q126.77-10.87 126.19-10.04L126.19-10.04L126.19-10.04Q125.62-9.22 125.35-7.56L125.35-7.56L123.86 0L119.18 0.48L120.48-6.05L120.48-6.05Q120.70-7.13 120.89-8.35L120.89-8.35L120.89-8.35Q121.08-9.58 121.08-9.77L121.08-9.77L121.08-9.77Q121.08-10.87 120.26-10.87L120.26-10.87L120.26-10.87Q119.71-10.87 119.11-10.06L119.11-10.06L119.11-10.06Q118.51-9.24 118.18-7.56L118.18-7.56L116.71 0L111.98 0.48L114.50-12.24L118.42-12.72L118.01-10.30L118.01-10.30Q118.63-11.59 119.78-12.16L119.78-12.16L119.78-12.16Q120.94-12.72 122.74-12.72L122.74-12.72L122.74-12.72Q123.77-12.72 124.44-12.22L124.44-12.22L124.44-12.22Q125.11-11.71 125.33-10.90L125.33-10.90L125.33-10.90Q125.74-11.74 126.78-12.23L126.78-12.23L126.78-12.23Q127.82-12.72 129.11-12.72L129.11-12.72L129.11-12.72Q130.39-12.72 131.03-12.44L131.03-12.44L131.03-12.44Q131.66-12.17 132.05-11.71L132.05-11.71L132.05-11.71Q132.70-10.87 132.70-9.34L132.70-9.34L132.70-9.34Q132.70-7.82 132.05-4.68L132.05-4.68L132.05-4.68Q131.71-3.14 131.71-2.58L131.71-2.58L131.71-2.58Q131.71-2.02 132.04-1.68L132.04-1.68L132.04-1.68Q132.36-1.34 132.84-1.30L132.84-1.30L132.84-1.30Q132.60-0.48 131.77 0L131.77 0L131.77 0Q130.94 0.48 129.86 0.48ZM140.45-1.32L140.45-1.32L140.45-1.32Q139.70 0.48 137.33 0.48L137.33 0.48L137.33 0.48Q136.10 0.48 135.34-0.36L135.34-0.36L135.34-0.36Q134.69-1.10 134.69-1.85L134.69-1.85L134.69-1.85Q134.69-3.79 135.58-7.58L135.58-7.58L136.46-12.24L141.34-12.72L139.87-5.14L139.87-5.14Q139.46-3.36 139.46-2.74L139.46-2.74L139.46-2.74Q139.46-1.37 140.45-1.32ZM136.90-15.58L136.90-15.58L136.90-15.58Q136.90-16.51 137.68-17.02L137.68-17.02L137.68-17.02Q138.46-17.52 139.58-17.52L139.58-17.52L139.58-17.52Q140.71-17.52 141.40-17.02L141.40-17.02L141.40-17.02Q142.08-16.51 142.08-15.58L142.08-15.58L142.08-15.58Q142.08-14.64 141.32-14.16L141.32-14.16L141.32-14.16Q140.57-13.68 139.44-13.68L139.44-13.68L139.44-13.68Q138.31-13.68 137.60-14.16L137.60-14.16L137.60-14.16Q136.90-14.64 136.90-15.58ZM148.25-1.32L148.25-1.32L148.25-1.32Q147.50 0.48 145.13 0.48L145.13 0.48L145.13 0.48Q143.90 0.48 143.14-0.36L143.14-0.36L143.14-0.36Q142.49-1.10 142.49-1.85L142.49-1.85L142.49-1.85Q142.49-3.79 143.38-7.58L143.38-7.58L144.26-12.24L149.14-12.72L147.67-5.14L147.67-5.14Q147.26-3.36 147.26-2.74L147.26-2.74L147.26-2.74Q147.26-1.37 148.25-1.32ZM144.70-15.58L144.70-15.58L144.70-15.58Q144.70-16.51 145.48-17.02L145.48-17.02L145.48-17.02Q146.26-17.52 147.38-17.52L147.38-17.52L147.38-17.52Q148.51-17.52 149.20-17.02L149.20-17.02L149.20-17.02Q149.88-16.51 149.88-15.58L149.88-15.58L149.88-15.58Q149.88-14.64 149.12-14.16L149.12-14.16L149.12-14.16Q148.37-13.68 147.24-13.68L147.24-13.68L147.24-13.68Q146.11-13.68 145.40-14.16L145.40-14.16L145.40-14.16Q144.70-14.64 144.70-15.58Z" fill="#ccfbff"></path></g></g><style>text {
  font-size: 64px;
  font-family: Arial Black;
  dominant-baseline: central;
  text-anchor: middle;
}</style></svg>